<svg width="212" height="61" viewBox="0 0 212 61" fill="none" xmlns="http://www.w3.org/2000/svg">
<path d="M5.84625 20.12H23.5263V28.52H11.0463L18.6463 39.8C22.0596 44.6533 23.9529 47.9867 24.3263 49.8C24.5396 50.6533 24.6463 51.5333 24.6463 52.44C24.6463 56.2267 23.2329 59.08 20.4063 61H0.00625011V52.6H14.6463L6.08625 40.04C5.71292 39.4533 5.12625 38.6267 4.32625 37.56C3.57958 36.4933 2.99292 35.64 2.56625 35C2.13958 34.3067 1.84625 33.8 1.68625 33.48C1.52625 33.16 1.31292 32.76 1.04625 32.28C0.779583 31.7467 0.592917 31.2933 0.48625 30.92C0.272917 29.9067 0.16625 29.08 0.16625 28.44C0.16625 24.5467 2.05958 21.7733 5.84625 20.12ZM47.3138 42.52H38.7538C37.6338 43.9067 37.0738 45.64 37.0738 47.72C37.0738 49.8 37.6604 51.4267 38.8338 52.6H47.3138V42.52ZM30.1138 20.12H49.9538C53.1538 22.04 55.2604 24.2533 56.2738 26.76C57.2871 29.2133 57.7938 32.5733 57.7938 36.84V48.84C57.7938 53.2667 57.9004 57.32 58.1138 61H48.9938L47.5538 58.12C45.4738 60.04 42.5404 61 38.7538 61H33.7138C29.1804 58.0133 26.9138 53.72 26.9138 48.12C26.9138 42.4667 29.2338 38.0133 33.8738 34.76H41.3938C43.4738 34.76 45.4204 35.4 47.2338 36.68V32.68C47.2338 30.6 46.3271 29.2133 44.5138 28.52H30.1138V20.12ZM73.6131 5H85.1331V13.4H77.9331C76.1198 14.52 75.2131 16.76 75.2131 20.12H83.5331V28.52H75.2131V61H64.5731V28.52H60.1731V20.12H64.5731C64.5731 13.1867 67.5865 8.14666 73.6131 5ZM103.576 28.52H97.5763C96.7763 29.48 96.1096 30.8133 95.5763 32.52C95.0963 34.2267 94.8563 35.88 94.8563 37.48H106.296C106.403 35.88 106.19 34.2267 105.656 32.52C105.123 30.76 104.43 29.4267 103.576 28.52ZM114.456 52.6V61H94.1363C90.4029 58.4933 87.7629 55.4 86.2163 51.72C84.7229 47.9867 83.9763 44.2267 83.9763 40.44C83.9763 31.6933 87.2829 24.92 93.8963 20.12H106.856C110.43 22.7333 112.856 25.5067 114.136 28.44C115.416 31.3733 116.056 34.3333 116.056 37.32C116.056 40.3067 115.816 42.8667 115.336 45H95.4163C95.5763 46.2267 96.0296 47.64 96.7763 49.24C97.5763 50.7867 98.4296 51.9067 99.3363 52.6H114.456ZM117.141 11.72V0.919996H127.861V3.72C127.861 8.09333 127.515 11.3733 126.821 13.56C126.181 15.6933 124.421 18.76 121.541 22.76L116.981 20.2C119.381 16.0933 120.768 13.2667 121.141 11.72H117.141ZM146.342 28.52H140.342C139.542 29.48 138.875 30.8133 138.342 32.52C137.862 34.2267 137.622 35.88 137.622 37.48H149.062C149.169 35.88 148.955 34.2267 148.422 32.52C147.889 30.76 147.195 29.4267 146.342 28.52ZM157.222 52.6V61H136.902C133.169 58.4933 130.529 55.4 128.982 51.72C127.489 47.9867 126.742 44.2267 126.742 40.44C126.742 31.6933 130.049 24.92 136.662 20.12H149.622C153.195 22.7333 155.622 25.5067 156.902 28.44C158.182 31.3733 158.822 34.3333 158.822 37.32C158.822 40.3067 158.582 42.8667 158.102 45H138.182C138.342 46.2267 138.795 47.64 139.542 49.24C140.342 50.7867 141.195 51.9067 142.102 52.6H157.222ZM180.95 20.12H186.63L188.63 22.92C189.75 21.9067 190.817 21.1867 191.83 20.76C192.897 20.3333 194.47 20.12 196.55 20.12H205.43C207.777 23.1067 209.377 26.0933 210.23 29.08C211.083 32.0667 211.51 35.8 211.51 40.28V61H200.87V39.48C200.87 34.5733 200.123 30.92 198.63 28.52H190.95C192.123 30.8133 192.71 33.9333 192.71 37.88V61H182.07V39.48C182.07 34.4133 181.377 30.76 179.99 28.52H173.83V61H163.19V20.12H171.51L172.95 23C174.123 21.9333 175.217 21.1867 176.23 20.76C177.297 20.3333 178.87 20.12 180.95 20.12Z" fill="white"/>
</svg>
