<svg width="193" height="56" viewBox="0 0 193 56" fill="none" xmlns="http://www.w3.org/2000/svg">
<path d="M28.0328 56H11.0728C7.23281 52.48 4.43281 48.2933 2.67281 43.44C0.912813 38.5867 0.0328126 33.52 0.0328126 28.24C0.0328126 22.9067 1.09948 17.6533 3.23281 12.48C5.36615 7.30666 8.35281 3.14666 12.1928 -3.8147e-06H31.6328V9.6H16.7528C15.3661 11.2 14.1661 13.7333 13.1528 17.2C12.1395 20.6133 11.6328 24.2667 11.6328 28.16C11.6328 32 12.0861 35.68 12.9928 39.2C13.9528 42.6667 15.1261 45.1733 16.5128 46.72H24.1928V24.96H34.7528V38.4C34.7528 45.76 32.5128 51.6267 28.0328 56ZM40.0041 -3.8147e-06H61.2841C64.6441 1.12 67.4974 3.2 69.8441 6.24C72.2441 9.22666 73.4441 12.9067 73.4441 17.28C73.4441 24.4267 70.6174 29.68 64.9641 33.04L73.0441 56H61.8441L55.0441 35.6H50.8041V56H40.0041V-3.8147e-06ZM50.8041 9.6V26.64H57.6841C58.5907 26.4267 59.5774 25.52 60.6441 23.92C61.7641 22.2667 62.3241 20.3467 62.3241 18.16C62.3241 15.9733 61.8441 14.0533 60.8841 12.4C59.9774 10.7467 59.0707 9.81333 58.1641 9.6H50.8041ZM78.2228 56V-3.8147e-06H106.943V9.6H89.1828V22.96H105.023V32.24H89.1828V46.72H107.263V56H78.2228ZM136.297 56L134.617 47.12H121.977L120.297 56H109.417L120.217 -3.8147e-06H136.777L147.017 56H136.297ZM128.137 10.4L125.017 29.04L123.257 38.56H133.257L131.417 29.04L128.297 10.4H128.137ZM154.872 9.6H142.792V-3.8147e-06H177.832V9.6H165.752V56H154.872V9.6ZM182.033 45.2H190.993V56H182.033V45.2ZM192.193 -3.8147e-06L190.993 25.6V36.72H182.033V25.6L180.833 -3.8147e-06H192.193Z" fill="#070C31"/>
</svg>
