<svg width="186" height="54" viewBox="0 0 186 54" fill="none" xmlns="http://www.w3.org/2000/svg">
<path d="M5.78564 17.8221L21.2556 17.7816L21.2748 25.1315L10.3549 25.1601L17.0307 35.0127C20.0285 39.2515 21.6928 42.1638 22.0236 43.7496C22.2122 44.4958 22.3076 45.2656 22.3097 46.0589C22.3183 49.3722 21.0882 51.8721 18.6193 53.5586L0.769353 53.6053L0.750101 46.2554L13.5601 46.2218L6.0413 35.2515C5.71329 34.739 5.19806 34.017 4.49562 33.0855C3.83984 32.1539 3.32456 31.4086 2.94976 30.8496C2.57484 30.2439 2.31701 29.8012 2.17628 29.5216C2.03554 29.2419 1.84796 28.8924 1.61353 28.473C1.37897 28.007 1.2146 27.6108 1.12041 27.2843C0.931424 26.3982 0.836196 25.6751 0.83473 25.1151C0.825807 21.7084 2.47611 19.2774 5.78564 17.8221ZM41.9959 37.3273L34.5059 37.3469C33.5291 38.5628 33.0431 40.0808 33.0479 41.9008C33.0526 43.7208 33.5697 45.1427 34.599 46.1667L42.019 46.1473L41.9959 37.3273ZM26.8946 17.7668L44.2546 17.7213C47.059 19.394 48.9074 21.3258 49.7998 23.5168C50.6921 25.6612 51.1431 28.6 51.1529 32.3333L51.1804 42.8333C51.1905 46.7066 51.2931 50.253 51.4882 53.4725L43.5083 53.4934L42.2417 50.9767C40.4261 52.6615 37.8616 53.5082 34.5483 53.5169L30.1383 53.5284C26.1648 50.9255 24.1716 47.174 24.1588 42.274C24.1459 37.3274 26.1656 33.4254 30.2182 30.5681L36.7982 30.5509C38.6181 30.5461 40.3229 31.1017 41.9125 32.2175L41.9034 28.7175C41.8986 26.8975 41.1021 25.6863 39.5138 25.0838L26.9139 25.1168L26.8946 17.7668ZM64.7968 4.43747L74.8768 4.41107L74.896 11.761L68.596 11.7775C67.0119 12.7617 66.2238 14.7238 66.2315 17.6638L73.5114 17.6447L73.5307 24.9947L66.2507 25.0137L66.3251 53.4336L57.0152 53.458L56.9407 25.0381L53.0907 25.0482L53.0715 17.6982L56.9215 17.6881C56.9056 11.6215 59.5307 7.20461 64.7968 4.43747ZM90.9434 24.9491L85.6934 24.9628C84.9956 25.8046 84.4153 26.9728 83.9525 28.4674C83.5365 29.9618 83.3302 31.409 83.3339 32.809L93.3439 32.7828C93.4335 31.3826 93.2431 29.9364 92.7725 28.4443C92.3018 26.9055 91.6921 25.7404 90.9434 24.9491ZM100.519 45.994L100.538 53.344L82.7578 53.3906C79.4854 51.2058 77.1683 48.5052 75.8066 45.2888C74.4914 42.0255 73.8294 38.7373 73.8207 35.4239C73.8007 27.7706 76.6785 21.8364 82.4541 17.6213L93.7941 17.5916C96.9267 19.87 99.0564 22.2911 100.183 24.8549C101.31 27.4186 101.877 30.0071 101.883 32.6204C101.89 35.2338 101.686 37.4743 101.271 39.3421L83.8411 39.3877C83.984 40.4607 84.3839 41.6963 85.0409 43.0946C85.7444 44.4461 86.4936 45.4241 87.2886 46.0287L100.519 45.994ZM102.649 10.2183L102.624 0.768377L112.004 0.743808L112.011 3.1938C112.021 7.02046 111.725 9.89124 111.123 11.8062C110.568 13.6743 109.035 16.3616 106.524 19.8682L102.529 17.6387C104.619 14.0399 105.826 11.5634 106.149 10.2092L102.649 10.2183ZM128.113 24.8517L122.863 24.8655C122.165 25.7073 121.585 26.8755 121.122 28.37C120.706 29.8645 120.5 31.3117 120.504 32.7117L130.514 32.6854C130.603 31.2852 130.413 29.839 129.942 28.3469C129.472 26.8081 128.862 25.6431 128.113 24.8517ZM137.688 45.8967L137.708 53.2467L119.928 53.2932C116.655 51.1085 114.338 48.4079 112.976 45.1914C111.661 41.9282 110.999 38.6399 110.991 35.3266C110.97 27.6733 113.848 21.7391 119.624 17.5239L130.964 17.4942C134.097 19.7727 136.226 22.1938 137.353 24.7575C138.48 27.3212 139.046 29.9097 139.053 32.5231C139.06 35.1364 138.856 37.3769 138.441 39.2447L121.011 39.2904C121.154 40.3633 121.554 41.5989 122.211 42.9972C122.914 44.3487 123.663 45.3268 124.458 45.9313L137.688 45.8967ZM158.251 17.4227L163.221 17.4097L164.977 19.8551C165.955 18.9659 166.887 18.3335 167.772 17.9578C168.705 17.582 170.081 17.3917 171.901 17.387L179.671 17.3666C181.731 19.9746 183.138 22.5842 183.891 25.1956C184.645 27.807 185.027 31.0726 185.037 34.9926L185.084 53.1226L175.775 53.147L175.725 34.317C175.714 30.0237 175.052 26.8288 173.74 24.7322L167.02 24.7498C168.052 26.7538 168.573 29.4824 168.582 32.9357L168.635 53.1657L159.325 53.19L159.275 34.3601C159.264 29.9268 158.649 26.7317 157.43 24.7749L152.04 24.789L152.115 53.2089L142.805 53.2333L142.711 17.4634L149.991 17.4444L151.258 19.9611C152.282 19.025 153.237 18.3692 154.122 17.9936C155.055 17.6178 156.431 17.4275 158.251 17.4227Z" fill="#2E3A83"/>
</svg>
